#!OML:ASF X:\für Bonn\!DataBase\2005_08_12_Daniel\c3d\Daniel.ASF
:FULLY-SPECIFIED
:DEGREES
208
root -0.329844 16.4047 -0.497853 888.284 -40.9026 -178.962
lowerback 36.6543 -3.61092 10.6512
upperback 9.18579 -2.87298 -0.938478
thorax -8.18695 -2.24602 -5.31415
lowerneck -5.21381 2.92274 -1.30809
upperneck -1.90568 3.86661 -4.27402
head 0.338341 1.86216 -1.02206
rclavicle 8.96519e-014 -8.50798e-014
rhumerus -39.3847 -5.30717 -83.685
rradius 68.4771
rwrist 8.36362
rhand -33.3109 7.14665
rfingers 7.12502
rthumb -6.51437 -22.7332
lclavicle 8.96519e-014 -8.50798e-014
lhumerus -29.7619 16.5156 82.1504
lradius 72.4619
lwrist -23.0025
lhand -25.8318 2.31899
lfingers 7.12502
lthumb 0.708186 32.2976
rfemur -20.4958 -9.01026 24.6953
rtibia 54.4868
rfoot -19.3072 16.5614
rtoes -1.06766
lfemur -11.056 3.10905 -16.7628
ltibia 82.5665
lfoot -16.1914 -6.79124
ltoes -7.5913
209
root -0.389547 16.4043 -0.585457 888.094 -40.9722 -178.934
lowerback 36.6691 -3.53264 10.6076
upperback 9.19748 -2.7885 -0.917397
thorax -8.16494 -2.20612 -5.30266
lowerneck -5.29853 2.92085 -1.22758
upperneck -1.8063 3.86643 -4.37478
head 0.387455 1.85776 -1.06499
rclavicle 1.86858e-014 -4.41302e-014
rhumerus -39.3086 -5.29154 -83.6064
rradius 68.4769
rwrist 8.46669
rhand -33.314 7.14248
rfingers 7.12502
rthumb -6.51735 -22.7372
lclavicle 1.86858e-014 -4.41302e-014
lhumerus -29.8343 16.5911 82.1215
lradius 72.4195
lwrist -22.9781
lhand -25.8313 2.4825
lfingers 7.12502
lthumb 0.708697 32.4611
rfemur -19.9169 -9.1763 24.6447
rtibia 54.5596
rfoot -19.5842 16.7084
rtoes -0.981171
lfemur -12.0748 3.015 -16.6942
ltibia 82.7446
lfoot -16.5713 -6.60088
ltoes -7.27417
210
root -0.449447 16.4038 -0.671736 887.894 -41.0709 -178.924
lowerback 36.7022 -3.46234 10.5764
upperback 9.20522 -2.70764 -0.908038
thorax -8.15509 -2.16805 -5.30782
lowerneck -5.34622 2.91521 -1.09319
upperneck -1.70772 3.85779 -4.5166
head 0.43243 1.84909 -1.1306
rclavicle -6.34123e-014 6.12257e-014
rhumerus -39.2292 -5.31183 -83.5172
rradius 68.4537
rwrist 8.58337
rhand -33.2972 7.0747
rfingers 7.12502
rthumb -6.50114 -22.8055
lclavicle -6.34123e-014 6.12257e-014
lhumerus -29.914 16.6632 82.0853
lradius 72.3902
lwrist -23.0211
lhand -25.7871 2.63888
lfingers 7.12502
lthumb 0.751353 32.6173
rfemur -19.316 -9.38161 24.559
rtibia 54.6288
rfoot -19.8217 16.8517
rtoes -0.854199
lfemur -13.0658 2.86625 -16.6865
ltibia 82.8493
lfoot -16.9642 -6.41603
ltoes -7.18637
211
root -0.50953 16.4023 -0.758872 887.663 -41.1681 -178.913
lowerback 36.7246 -3.38846 10.5204
upperback 9.24338 -2.64078 -0.901099
thorax -8.10976 -2.13652 -5.29828
lowerneck -5.32252 2.92484 -0.875873
upperneck -1.69352 3.85911 -4.70693
head 0.442743 1.84688 -1.22694
rclavicle -1.74931e-014 5.80451e-014
rhumerus -39.1632 -5.33444 -83.4557
rradius 68.4667
rwrist 8.66515
rhand -33.3104 7.10238
rfingers 7.12502
rthumb -6.51384 -22.7774
lclavicle -1.74931e-014 5.80451e-014
lhumerus -29.9565 16.7872 82.0426
lradius 72.3236
lwrist -23.0558
lhand -25.7942 2.73115
lfingers 7.12502
lthumb 0.744466 32.7096
rfemur -18.6621 -9.55815 24.4676
rtibia 54.6763
rfoot -20.0466 17.0032
rtoes -0.657536
lfemur -14.0091 2.73049 -16.6883
ltibia 82.8911
lfoot -17.399 -6.25752
ltoes -7.22643
212
root -0.569052 16.4039 -0.845574 887.431 -41.2709 -178.907
lowerback 36.7451 -3.30557 10.4662
upperback 9.27888 -2.56003 -0.880432
thorax -8.06386 -2.09857 -5.28036
lowerneck -5.24043 2.91622 -0.690194
upperneck -1.69922 3.83556 -4.9006
head 0.435973 1.83349 -1.32086
rclavicle -1.45113e-014 1.19271e-014
rhumerus -39.1086 -5.35188 -83.3766
rradius 68.4696
rwrist 8.75179
rhand -33.3466 7.06426
rfingers 7.12502
rthumb -6.54883 -22.8145
lclavicle -1.45113e-014 1.19271e-014
lhumerus -29.9902 16.8831 82.0185
lradius 72.2601
lwrist -23.1023
lhand -25.7497 2.81573
lfingers 7.12502
lthumb 0.787461 32.794
rfemur -17.9902 -9.74598 24.3649
rtibia 54.7053
rfoot -20.2819 17.1289
rtoes -0.632725
lfemur -14.9194 2.49445 -16.7645
ltibia 82.8418
lfoot -17.8597 -6.04734
ltoes -7.45632
213
root -0.629266 16.4055 -0.931773 887.205 -41.3502 -178.902
lowerback 36.7637 -3.21674 10.4483
upperback 9.31715 -2.46167 -0.889196
thorax -8.01354 -2.0515 -5.31989
lowerneck -5.19116 2.89565 -0.447648
upperneck -1.68536 3.79573 -5.07368
head 0.441101 1.81156 -1.41821
rclavicle -9.12422e-014 2.98177e-014
rhumerus -39.0657 -5.43356 -83.3049
rradius 68.5245
rwrist 8.84352
rhand -33.3419 7.01366
rfingers 7.12502
rthumb -6.54428 -22.8652
lclavicle -9.12422e-014 2.98177e-014
lhumerus -29.999 16.9235 81.9523
lradius 72.1732
lwrist -23.128
lhand -25.7336 2.8676
lfingers 7.12502
lthumb 0.80303 32.8458
rfemur -17.3143 -9.90445 24.2645
rtibia 54.7185
rfoot -20.4762 17.267
rtoes -0.348703
lfemur -15.829 2.31649 -16.8421
ltibia 82.7326
lfoot -18.2587 -5.86007
ltoes -7.68579
214
root -0.689601 16.4054 -1.01699 886.964 -41.4473 -178.893
lowerback 36.7975 -3.14163 10.4524
upperback 9.33813 -2.36744 -0.909007
thorax -7.98903 -2.00639 -5.37999
lowerneck -5.0843 2.86046 -0.220687
upperneck -1.6928 3.73549 -5.24356
head 0.428807 1.78088 -1.51367
rclavicle 3.33958e-014 3.06128e-014
rhumerus -39.029 -5.55455 -83.2627
rradius 68.5447
rwrist 8.94466
rhand -33.3524 6.93399
rfingers 7.12502
rthumb -6.55441 -22.9446
lclavicle 3.33958e-014 3.06128e-014
lhumerus -30.0268 16.9412 81.8824
lradius 72.0774
lwrist -23.1659
lhand -25.7416 2.92089
lfingers 7.12502
lthumb 0.795315 32.8992
rfemur -16.6284 -10.0841 24.1537
rtibia 54.7346
rfoot -20.6735 17.3971
rtoes -0.233307
lfemur -16.7014 2.08931 -16.9506
ltibia 82.5428
lfoot -18.596 -5.68354
ltoes -7.90309
215
root -0.749684 16.4035 -1.10228 886.711 -41.538 -178.883
lowerback 36.823 -3.05025 10.4091
upperback 9.3821 -2.27468 -0.895039
thorax -7.93415 -1.96283 -5.37936
lowerneck -5.01938 2.83906 -0.0689236
upperneck -1.67636 3.69928 -5.38847
head 0.429074 1.76157 -1.58744
rclavicle 2.18663e-014 -7.27552e-014
rhumerus -38.9839 -5.63146 -83.2042
rradius 68.6142
rwrist 9.02084
rhand -33.3876 6.90587
rfingers 7.12502
rthumb -6.58843 -22.9716
lclavicle 2.18663e-014 -7.27552e-014
lhumerus -30.0355 17.021 81.836
lradius 72.0093
lwrist -23.2037
lhand -25.7378 3.01817
lfingers 7.12502
lthumb 0.798939 32.9964
rfemur -15.9362 -10.2282 24.0496
rtibia 54.7551
rfoot -20.8462 17.5066
rtoes -0.0104799
lfemur -17.5373 1.903 -17.0486
ltibia 82.2823
lfoot -18.9654 -5.60017
ltoes -8.07943
